<svg width="15" height="15" viewBox="0 0 15 15" fill="none" xmlns="http://www.w3.org/2000/svg">
<path fill-rule="evenodd" clip-rule="evenodd" d="M5.98128 5.41825H8.61021V6.72776C8.98891 5.97461 9.96007 5.29791 11.4189 5.29791C14.2156 5.29791 14.8796 6.79713 14.8796 9.5478V14.6421H12.0482V10.1742C12.0482 8.60779 11.6695 7.7244 10.7054 7.7244C9.36831 7.7244 8.81265 8.67645 8.81265 10.1735V14.6421H5.98128V5.41825ZM1.12619 14.5218H3.95756V5.29791H1.12619V14.5218ZM4.36315 2.29029C4.36326 2.52761 4.31619 2.76259 4.22469 2.98156C4.13319 3.20053 3.99908 3.39914 3.83015 3.56582C3.48784 3.90603 3.02449 4.09646 2.54187 4.09529C2.06011 4.09497 1.59783 3.90502 1.25502 3.56653C1.0867 3.39928 0.953039 3.20045 0.861698 2.98145C0.770356 2.76245 0.723127 2.52758 0.722717 2.29029C0.722717 1.81108 0.913835 1.3524 1.25572 1.01405C1.59824 0.675105 2.06071 0.485079 2.54258 0.485291C3.02533 0.485291 3.48826 0.6757 3.83015 1.01405C4.17133 1.3524 4.36315 1.81108 4.36315 2.29029Z" fill="white"/>
</svg>
