<svg width="20" height="19" viewBox="0 0 20 19" fill="none" xmlns="http://www.w3.org/2000/svg">
<path d="M9.96867 12.2039C10.6631 12.2039 11.2534 11.9561 11.7395 11.4606C12.2256 10.965 12.4687 10.3633 12.4687 9.65537C12.4687 8.94744 12.2256 8.3457 11.7395 7.85015C11.2534 7.3546 10.6631 7.10683 9.96867 7.10683C9.27422 7.10683 8.68395 7.3546 8.19784 7.85015C7.71172 8.3457 7.46867 8.94744 7.46867 9.65537C7.46867 10.3633 7.71172 10.965 8.19784 11.4606C8.68395 11.9561 9.27422 12.2039 9.96867 12.2039ZM9.96867 13.9029C8.81589 13.9029 7.83339 13.4886 7.02117 12.6601C6.20839 11.8321 5.802 10.8305 5.802 9.65537C5.802 8.48021 6.20839 7.47835 7.02117 6.64979C7.83339 5.8218 8.81589 5.4078 9.96867 5.4078C11.1214 5.4078 12.1042 5.8218 12.917 6.64979C13.7292 7.47835 14.1353 8.48021 14.1353 9.65537C14.1353 10.8305 13.7292 11.8321 12.917 12.6601C12.1042 13.4886 11.1214 13.9029 9.96867 13.9029ZM1.63534 10.5049C1.39922 10.5049 1.20145 10.4233 1.042 10.2602C0.882002 10.0977 0.802002 9.89606 0.802002 9.65537C0.802002 9.41467 0.882002 9.21277 1.042 9.04966C1.20145 8.88712 1.39922 8.80585 1.63534 8.80585H3.302C3.53811 8.80585 3.73617 8.88712 3.89617 9.04966C4.05561 9.21277 4.13534 9.41467 4.13534 9.65537C4.13534 9.89606 4.05561 10.0977 3.89617 10.2602C3.73617 10.4233 3.53811 10.5049 3.302 10.5049H1.63534ZM16.6353 10.5049C16.3992 10.5049 16.2014 10.4233 16.042 10.2602C15.882 10.0977 15.802 9.89606 15.802 9.65537C15.802 9.41467 15.882 9.21277 16.042 9.04966C16.2014 8.88712 16.3992 8.80585 16.6353 8.80585H18.302C18.5381 8.80585 18.7359 8.88712 18.8953 9.04966C19.0553 9.21277 19.1353 9.41467 19.1353 9.65537C19.1353 9.89606 19.0553 10.0977 18.8953 10.2602C18.7359 10.4233 18.5381 10.5049 18.302 10.5049H16.6353ZM9.96867 3.70878C9.73256 3.70878 9.53478 3.62723 9.37534 3.46412C9.21534 3.30158 9.13534 3.09996 9.13534 2.85927V1.16024C9.13534 0.919547 9.21534 0.717646 9.37534 0.55454C9.53478 0.392 9.73256 0.31073 9.96867 0.31073C10.2048 0.31073 10.4028 0.392 10.5628 0.55454C10.7223 0.717646 10.802 0.919547 10.802 1.16024V2.85927C10.802 3.09996 10.7223 3.30158 10.5628 3.46412C10.4028 3.62723 10.2048 3.70878 9.96867 3.70878ZM9.96867 19C9.73256 19 9.53478 18.9184 9.37534 18.7553C9.21534 18.5928 9.13534 18.3912 9.13534 18.1505V16.4515C9.13534 16.2108 9.21534 16.0092 9.37534 15.8466C9.53478 15.6835 9.73256 15.602 9.96867 15.602C10.2048 15.602 10.4028 15.6835 10.5628 15.8466C10.7223 16.0092 10.802 16.2108 10.802 16.4515V18.1505C10.802 18.3912 10.7223 18.5928 10.5628 18.7553C10.4028 18.9184 10.2048 19 9.96867 19ZM4.677 5.45028L3.78117 4.55829C3.6145 4.40255 3.5345 4.20433 3.54117 3.96363C3.54839 3.72294 3.62839 3.51764 3.78117 3.34774C3.94784 3.17783 4.14922 3.09288 4.38534 3.09288C4.62145 3.09288 4.81589 3.17783 4.96867 3.34774L5.84367 4.26096C5.99645 4.43086 6.07284 4.62908 6.07284 4.85562C6.07284 5.08216 5.99645 5.28038 5.84367 5.45028C5.69089 5.62018 5.50006 5.70145 5.27117 5.69409C5.04172 5.68729 4.84367 5.60602 4.677 5.45028ZM14.9687 15.963L14.0937 15.0498C13.9409 14.8799 13.8645 14.6782 13.8645 14.4449C13.8645 14.211 13.9409 14.0162 14.0937 13.8605C14.2464 13.6905 14.4376 13.6093 14.667 13.6166C14.8959 13.6234 15.0937 13.7047 15.2603 13.8605L16.1562 14.7524C16.3228 14.9082 16.4028 15.1064 16.3962 15.3471C16.3889 15.5878 16.3089 15.7931 16.1562 15.963C15.9895 16.1329 15.7881 16.2178 15.552 16.2178C15.3159 16.2178 15.1214 16.1329 14.9687 15.963ZM14.0937 5.45028C13.927 5.29454 13.8473 5.09971 13.8545 4.86582C13.8612 4.63248 13.9409 4.43086 14.0937 4.26096L14.9687 3.34774C15.1214 3.17783 15.3159 3.09628 15.552 3.10308C15.7881 3.11044 15.9895 3.19199 16.1562 3.34774C16.3228 3.51764 16.4062 3.72294 16.4062 3.96363C16.4062 4.20433 16.3228 4.40255 16.1562 4.55829L15.2603 5.45028C15.0937 5.60602 14.8992 5.6839 14.677 5.6839C14.4548 5.6839 14.2603 5.60602 14.0937 5.45028ZM3.78117 15.963C3.6145 15.7931 3.53117 15.5878 3.53117 15.3471C3.53117 15.1064 3.6145 14.9082 3.78117 14.7524L4.677 13.8605C4.84367 13.7047 5.04172 13.6268 5.27117 13.6268C5.50006 13.6268 5.69089 13.7047 5.84367 13.8605C6.01034 14.0162 6.09034 14.211 6.08367 14.4449C6.07645 14.6782 5.99645 14.8799 5.84367 15.0498L4.96867 15.963C4.81589 16.1329 4.62145 16.2142 4.38534 16.2068C4.14922 16.2 3.94784 16.1187 3.78117 15.963Z" fill="black"/>
</svg>
