<svg width="18" height="15" viewBox="0 0 18 15" fill="none" xmlns="http://www.w3.org/2000/svg">
<path d="M17.2016 2.58256C16.6344 2.80943 16.0315 2.97062 15.3986 3.04226C16.0673 2.64823 16.5867 2.03928 16.8613 1.31092C16.8792 1.26316 16.8255 1.22137 16.7837 1.24525C16.1509 1.59749 15.4643 1.8542 14.73 1.99749C14.1031 1.34077 13.2136 0.928833 12.2285 0.928833C10.3359 0.928833 8.80162 2.43928 8.80162 4.30196C8.80162 4.56465 8.83147 4.82137 8.89117 5.07211C6.04938 4.92883 3.52998 3.59749 1.84043 1.56764C1.83446 1.5557 1.81654 1.56167 1.81056 1.56764C1.524 2.06316 1.3628 2.63032 1.3628 3.23928C1.3628 4.38555 1.94192 5.3945 2.83147 6.00943C2.84938 6.02137 2.83743 6.05122 2.81952 6.04525C2.29415 6.0154 1.8046 5.87212 1.36878 5.63928C1.35684 5.63331 1.33892 5.63928 1.34489 5.65719C1.35086 5.80644 1.4046 6.46913 1.57774 6.89301C2.00759 7.94376 2.93893 8.74973 4.09714 8.98256C3.81057 9.06017 3.5061 9.10196 3.18969 9.10196C2.98073 9.10196 2.77773 9.08405 2.57474 9.04226C2.5628 9.04226 2.55088 9.0542 2.55088 9.06614C2.99267 10.3736 4.22252 11.3288 5.6852 11.3766C5.70311 11.3766 5.71505 11.4005 5.69714 11.4124C4.53296 12.296 3.07027 12.8214 1.48221 12.8214C1.20759 12.8214 0.932963 12.8035 0.664307 12.7736C2.18072 13.7288 3.9837 14.29 5.91803 14.29C8.58669 14.29 10.7419 13.3706 12.3419 11.9736C13.9539 10.5647 15.0046 8.66018 15.4404 6.72585C15.5956 6.04525 15.6733 5.35868 15.6733 4.69002C15.6733 4.54674 15.6733 4.39749 15.6613 4.25421C16.2822 3.81241 16.8255 3.26913 17.2673 2.65421C17.2971 2.61241 17.2553 2.55271 17.2016 2.57659V2.58256Z" fill="black"/>
</svg>
