<svg width="19" height="19" viewBox="0 0 19 19" fill="none" xmlns="http://www.w3.org/2000/svg">
<path fill-rule="evenodd" clip-rule="evenodd" d="M9.80115 0.612237C7.65854 0.612525 5.58592 1.37509 3.95404 2.76353C2.32217 4.15197 1.2375 6.07571 0.894058 8.19062C0.550618 10.3055 0.970814 12.4736 2.07948 14.3071C3.18815 16.1406 4.91296 17.5198 6.94538 18.1981C7.39663 18.2819 7.59002 18.0047 7.59002 17.7662V16.2319C5.08236 16.7734 4.55376 15.02 4.55376 15.02C4.37741 14.4674 4.00627 13.9978 3.50943 13.6985C2.69074 13.1441 3.5739 13.1505 3.5739 13.1505C3.85986 13.1909 4.13282 13.2962 4.37191 13.4582C4.611 13.6202 4.8099 13.8347 4.95343 14.0853C5.20313 14.5331 5.62047 14.8635 6.11368 15.0037C6.6069 15.1439 7.13561 15.0826 7.58358 14.8331C7.61997 14.3757 7.82162 13.9472 8.15086 13.6276C6.15247 13.3955 4.04449 12.6219 4.04449 9.16665C4.02987 8.26924 4.36244 7.40086 4.97277 6.74279C4.69652 5.96548 4.72882 5.11183 5.06302 4.35761C5.06302 4.35761 5.81725 4.11265 7.5449 5.27945C9.02208 4.87651 10.5802 4.87651 12.0574 5.27945C13.7786 4.11265 14.5328 4.35761 14.5328 4.35761C14.867 5.11183 14.8993 5.96548 14.6231 6.74279C15.2334 7.40086 15.566 8.26924 15.5514 9.16665C15.5514 12.6348 13.4434 13.3955 11.4321 13.6211C11.6475 13.8395 11.8137 14.1015 11.9193 14.3895C12.025 14.6775 12.0677 14.9849 12.0445 15.2908V17.7662C12.0445 18.0627 12.2057 18.2883 12.6891 18.1981C14.7242 17.519 16.4508 16.1371 17.5593 14.3002C18.6678 12.4634 19.0857 10.2917 18.738 8.17466C18.3904 6.05761 17.2999 4.13365 15.6622 2.74779C14.0244 1.36193 11.9465 0.604825 9.80115 0.612237Z" fill="black"/>
</svg>
