<svg width="15" height="15" viewBox="0 0 15 15" fill="none" xmlns="http://www.w3.org/2000/svg">
<path fill-rule="evenodd" clip-rule="evenodd" d="M5.98147 5.41825H8.61039V6.72776C8.98909 5.97461 9.96025 5.29791 11.4191 5.29791C14.2158 5.29791 14.8798 6.79713 14.8798 9.5478V14.6421H12.0484V10.1742C12.0484 8.60779 11.6697 7.7244 10.7056 7.7244C9.36849 7.7244 8.81284 8.67645 8.81284 10.1735V14.6421H5.98147V5.41825ZM1.12637 14.5218H3.95774V5.29791H1.12637V14.5218ZM4.36334 2.29029C4.36344 2.52761 4.31638 2.76259 4.22487 2.98156C4.13337 3.20053 3.99926 3.39914 3.83033 3.56582C3.48802 3.90603 3.02467 4.09646 2.54206 4.09529C2.06029 4.09497 1.59801 3.90502 1.2552 3.56653C1.08688 3.39928 0.953222 3.20045 0.861881 2.98145C0.770539 2.76245 0.72331 2.52758 0.7229 2.29029C0.7229 1.81108 0.914018 1.3524 1.25591 1.01405C1.59842 0.675105 2.06089 0.485079 2.54276 0.485291C3.02551 0.485291 3.48844 0.6757 3.83033 1.01405C4.17151 1.3524 4.36334 1.81108 4.36334 2.29029Z" fill="black"/>
</svg>
