<svg width="41" height="41" viewBox="0 0 41 41" fill="none" xmlns="http://www.w3.org/2000/svg">
<path d="M20.3477 1.69798C19.9975 5.30484 18.9469 9.16935 17.5986 11.7457C15.7251 15.3526 13.1512 17.3964 8.66867 18.8564C6.65505 19.509 4.01108 20.0758 2.12003 20.2648C0.684233 20.4022 0.00135314 20.6598 1.06945 20.677C3.64338 20.6942 8.44104 21.9136 11.3126 23.2705C13.3263 24.2152 13.6064 24.4213 15.0772 25.8812C16.3379 27.135 16.8282 27.7877 17.4761 29.0071C18.9119 31.7896 19.8224 34.9327 20.2776 38.7972L20.4877 40.6865L20.7854 38.4365C21.3282 34.4346 22.1512 31.635 23.6045 28.8697C24.1648 27.8048 24.7426 27.0663 25.9333 25.8812C27.4041 24.4213 27.6842 24.2152 29.6978 23.2705C32.5694 21.9136 37.3671 20.6942 39.941 20.677C41.0091 20.6598 40.3263 20.4022 38.8905 20.2648C35.7387 19.9728 31.6414 18.8392 29.1901 17.5854C24.3924 15.1293 21.6959 10.2171 20.6978 2.07584L20.4877 0.323929L20.3477 1.69798Z" fill="white"/>
</svg>
