<svg width="41" height="41" viewBox="0 0 41 41" fill="none" xmlns="http://www.w3.org/2000/svg">
<path d="M20.3424 1.69273C19.9922 5.29959 18.9416 9.1641 17.5934 11.7404C15.7198 15.3473 13.1459 17.3912 8.66342 18.8511C6.6498 19.5038 4.00583 20.0706 2.11478 20.2595C0.678984 20.3969 -0.00389588 20.6546 1.0642 20.6717C3.63813 20.6889 8.43579 21.9084 11.3074 23.2652C13.321 24.2099 13.6012 24.416 15.072 25.8759C16.3327 27.1297 16.823 27.7824 17.4708 29.0019C18.9066 31.7843 19.8171 34.9275 20.2724 38.792L20.4825 40.6813L20.7801 38.4313C21.323 34.4294 22.1459 31.6297 23.5992 28.8645C24.1595 27.7996 24.7373 27.061 25.928 25.8759C27.3988 24.416 27.679 24.2099 29.6926 23.2652C32.5642 21.9084 37.3619 20.6889 39.9358 20.6717C41.0039 20.6546 40.321 20.3969 38.8852 20.2595C35.7335 19.9675 31.6362 18.8339 29.1848 17.5801C24.3872 15.124 21.6907 10.2118 20.6926 2.07059L20.4825 0.31868L20.3424 1.69273Z" fill="black"/>
</svg>
