<svg width="33" height="32" viewBox="0 0 33 32" fill="none" xmlns="http://www.w3.org/2000/svg">
<mask id="mask0_35_538" style="mask-type:alpha" maskUnits="userSpaceOnUse" x="0" y="0" width="33" height="32">
<rect x="0.0421143" width="32" height="32" fill="#D9D9D9"/>
</mask>
<g mask="url(#mask0_35_538)">
<path d="M18.7088 29.5922C16.8866 29.5922 15.1643 29.2352 13.5421 28.5211C11.9199 27.808 10.5034 26.8339 9.29278 25.5988C8.08123 24.3646 7.12523 22.9207 6.42478 21.267C5.72523 19.6133 5.37545 17.8576 5.37545 16C5.37545 14.1197 5.72523 12.3587 6.42478 10.7167C7.12523 9.07387 8.08123 7.63537 9.29278 6.40119C10.5034 5.16612 11.9199 4.19156 13.5421 3.47751C15.1643 2.76437 16.8866 2.40781 18.7088 2.40781C19.9088 2.40781 21.0754 2.56638 22.2088 2.88353C23.3421 3.20068 24.3977 3.65376 25.3754 4.24275C23.3532 5.4434 21.7368 7.06857 20.5261 9.11827C19.3146 11.1689 18.7088 13.4628 18.7088 16C18.7088 18.5372 19.3146 20.8307 20.5261 22.8804C21.7368 24.931 23.3532 26.5566 25.3754 27.7573C24.3977 28.3463 23.3421 28.7993 22.2088 29.1165C21.0754 29.4336 19.9088 29.5922 18.7088 29.5922ZM18.7088 26.8738H19.4088C19.631 26.8738 19.8421 26.8511 20.0421 26.8058C18.7754 25.3107 17.7923 23.6397 17.0928 21.793C16.3923 19.9472 16.0421 18.0162 16.0421 16C16.0421 13.9838 16.3923 12.0524 17.0928 10.2057C17.7923 8.35983 18.7754 6.68935 20.0421 5.19421C19.8421 5.1489 19.631 5.12625 19.4088 5.12625H18.7088C15.7532 5.12625 13.2368 6.18508 11.1594 8.30274C9.08123 10.4213 8.04211 12.9871 8.04211 16C8.04211 19.0129 9.08123 21.5787 11.1594 23.6973C13.2368 25.8149 15.7532 26.8738 18.7088 26.8738Z" fill="white"/>
</g>
</svg>
